<?xml version="1.0" encoding="UTF-8"?>
<svg id="_レイヤー_2" data-name="レイヤー 2" xmlns="http://www.w3.org/2000/svg" viewBox="0 0 84.31 18.36">
  <defs>
    <style>
      .cls-1 {
        fill: #3595ff;
      }

      .cls-1, .cls-2, .cls-3, .cls-4 {
        stroke-width: 0px;
      }

      .cls-2 {
        fill: #35a9ff;
      }

      .cls-3 {
        fill: #000;
      }

      .cls-4 {
        fill: #3582ff;
      }

      .cls-5 {
        opacity: .93;
      }
    </style>
  </defs>
  <g id="_レイヤー_1-2" data-name="レイヤー 1">
    <g>
      <g>
        <path class="cls-3" d="M36.25,4.85v1.38h-2.32v7.61h-1.43v-7.61h-2.26v-1.38h6.02Z"/>
        <path class="cls-3" d="M43.28,8.62v5.22h-1.38v-.75c-.19.22-.44.43-.77.61-.32.19-.7.28-1.12.28-.5,0-.95-.1-1.35-.31-.4-.21-.71-.52-.94-.93-.23-.41-.35-.91-.35-1.49s.12-1.07.36-1.5c.24-.43.56-.77.96-1,.4-.23.84-.35,1.32-.35.85,0,1.48.31,1.9.94l.1-.7h1.27ZM41.34,12.55c.26-.19.44-.47.55-.82v-1.14c-.1-.32-.29-.58-.57-.78s-.61-.3-.98-.3c-.44,0-.81.15-1.11.46-.3.31-.46.7-.46,1.18,0,.31.07.6.22.85.15.26.35.46.59.61s.51.22.8.22c.38,0,.7-.1.96-.29Z"/>
        <path class="cls-3" d="M46.4,13.74c-.36-.14-.65-.35-.88-.61l.58-.78c.44.43.88.64,1.33.64.25,0,.45-.05.61-.14.16-.09.24-.24.24-.43s-.08-.35-.25-.44c-.16-.1-.35-.18-.55-.24-.2-.06-.33-.1-.39-.12-.45-.14-.79-.34-1.01-.61-.22-.27-.33-.58-.33-.94,0-.29.07-.56.22-.81.14-.25.36-.45.65-.61.29-.16.65-.23,1.07-.23.4,0,.74.05,1.03.14.29.09.57.23.82.43l-.53.83c-.15-.14-.33-.25-.54-.33-.21-.08-.4-.12-.57-.12-.21,0-.39.05-.53.15-.14.1-.21.23-.21.38,0,.19.06.33.21.43.15.09.39.2.72.3.14.04.23.07.27.09.41.13.73.31.96.55.23.23.35.54.35.92,0,.51-.18.94-.55,1.28-.37.34-.89.51-1.57.51-.4,0-.78-.07-1.14-.22Z"/>
        <path class="cls-3" d="M53.96,11.47l-.61.47v1.9h-1.38V4.21h1.38v6.3l2.62-2.01.84.74-1.9,1.48,2.12,3.12h-1.61l-1.47-2.37Z"/>
        <path class="cls-3" d="M59.61,9.83h-.89v-1.22h.89v-2.05c0-.73.19-1.31.56-1.72.37-.41.9-.62,1.59-.62.21,0,.43.03.67.09.24.06.44.15.62.27l-.58,1c-.14-.15-.33-.22-.56-.22-.61,0-.91.41-.91,1.24v2.01h1.43v1.22h-1.43v4.01h-1.38v-4.01ZM67.26,4.21v9.63h-1.38V4.21h1.38Z"/>
        <path class="cls-3" d="M69.64,9.76c.25-.43.6-.76,1.04-1.01s.95-.36,1.52-.36,1.07.12,1.51.36c.44.24.78.58,1.02,1,.24.42.36.9.36,1.43s-.12,1-.36,1.43c-.24.42-.58.76-1.02,1.01-.44.25-.95.37-1.53.37s-1.06-.11-1.51-.34-.79-.55-1.04-.98c-.25-.42-.38-.92-.38-1.49,0-.52.13-.99.38-1.42ZM71.09,12.37c.29.32.65.48,1.07.48s.81-.16,1.09-.47c.28-.31.43-.71.43-1.19s-.14-.87-.43-1.19c-.28-.32-.65-.48-1.09-.48s-.79.16-1.07.49c-.29.33-.43.72-.43,1.18s.14.86.43,1.18Z"/>
        <path class="cls-3" d="M84.31,8.62l-2.38,5.53-1.68-3.53-1.53,3.53-2.41-5.53h1.36l1.21,2.78.88-2-.36-.78h1.2l1.24,2.87,1.12-2.87h1.36Z"/>
      </g>
      <g>
        <rect class="cls-2" x="3.5" y="3.5" width="20.99" height="14.86" rx="3.57" ry="3.57"/>
        <g class="cls-5">
          <rect class="cls-1" x="3.5" y="3.5" width="20.99" height="14.86" rx="3.57" ry="3.57"/>
        </g>
        <g class="cls-5">
          <rect class="cls-4" width="20.99" height="14.86" rx="3.57" ry="3.57"/>
        </g>
      </g>
    </g>
  </g>
</svg>